<?xml version="1.0" encoding="UTF-8"?>
<svg width="46px" height="46px" viewBox="0 0 46 46" version="1.1" xmlns="http://www.w3.org/2000/svg" xmlns:xlink="http://www.w3.org/1999/xlink">
    <!-- Generator: Sketch 43.1 (39012) - http://www.bohemiancoding.com/sketch -->
    <title>logo</title>
    <desc>Created with Sketch.</desc>
    <defs></defs>
    <g id="Home-(new)" stroke="none" stroke-width="1" fill="none" fill-rule="evenodd">
        <g id="logo" fill="#4BAB86">
            <path d="M37.184879,12.1769632 C37.7544427,12.081419 38.3132823,12.0295184 38.8566317,12.0295184 C40.9192146,12.0295184 42.1774975,12.4671346 42.5957335,13.3329303 C43.3297318,14.8545605 42.0368939,17.9992628 40.2972226,20.9056943 C39.9612039,17.7126301 38.8602064,14.7448615 37.184879,12.1769632 L37.184879,12.1769632 Z M27.3116484,16.9695084 C29.5517732,15.3641296 31.8038135,14.0182537 33.9557631,13.1383032 C35.9897487,15.9126242 37.1944115,19.3168293 37.1944115,22.9994102 C37.1944115,26.5923447 36.0481349,29.9245967 34.0999413,32.6588128 L27.3116484,16.9695084 Z M24.681885,18.975937 L31.7096806,35.2196337 C31.7251708,35.2503023 31.7442357,35.2809708 31.7609175,35.315178 C28.7272166,38.1060128 24.6652032,39.8163723 20.2052102,39.8163723 C15.7094705,39.8163723 11.6164766,38.0753443 8.57443489,35.2432249 C10.019792,33.4821444 16.9975422,25.1544632 24.681885,18.975937 L24.681885,18.975937 Z M6.19608969,32.500752 C4.31938945,29.7948453 3.21481731,26.5227507 3.21481731,22.9994102 C3.21481731,14.6410604 9.40852389,7.68874407 17.4908463,6.39948689 L6.19608969,32.500752 Z M26.0283429,14.004099 L22.7253505,6.36881838 C26.1772874,6.87838754 29.2908225,8.42007018 31.740661,10.6659491 C29.858003,11.5376427 27.9372152,12.679455 26.0283429,14.004099 L26.0283429,14.004099 Z M12.5244421,25.9577423 L20.1146519,8.41889063 L23.3759399,15.9562679 C19.4986176,18.9723983 15.7487918,22.5688715 12.5244421,25.9577423 L12.5244421,25.9577423 Z M40.0529536,26.8483088 C40.8655946,25.8527616 47.9184129,16.9848427 45.4959801,11.9611041 C44.4998396,9.894518 42.2656726,8.84589071 38.8566317,8.84589071 C37.6245631,8.84589071 36.3424492,9.05467253 35.0281632,9.42505382 C31.3343405,5.47707234 26.0593234,3 20.2052102,3 C20.1563564,3 20.1075026,3.00235912 20.0598404,3.00235912 C20.0491164,3.00235912 20.0360093,3 20.0240937,3 C19.9919217,3 19.9597497,3.00471823 19.9275777,3.00589779 C8.91402827,3.15334257 0,12.0625461 0,22.9994102 C0,34.0271004 9.06535584,43 20.2052102,43 C30.0057559,43 38.1977014,36.0559406 40.0255479,26.8777978 C40.0350803,26.8671817 40.0446128,26.8601044 40.0529536,26.8483088 L40.0529536,26.8483088 Z" id="Logo"></path>
        </g>
    </g>
</svg>